<svg xmlns="http://www.w3.org/2000/svg" viewBox="0 0 1200 900" role="img" aria-label="DermNotes internal-link graph">
<rect width="100%" height="100%" fill="#faf7f2"/>
<text x="600" y="36" text-anchor="middle" font-family="'Noto Serif TC',Georgia,serif" font-size="20" font-weight="700" fill="#2a2620">ChenDermatologist · internal-link cluster map (52 articles)</text>
<g stroke="#8b8378" stroke-opacity="0.30" stroke-width="0.8" fill="none">
<line x1="579.2" y1="190.1" x2="497.8" y2="90.8"/>
<line x1="579.2" y1="190.1" x2="547.3" y2="301.7"/>
<line x1="579.2" y1="190.1" x2="605.1" y2="241.2"/>
<line x1="579.2" y1="190.1" x2="605.1" y2="241.2"/>
<line x1="579.2" y1="190.1" x2="605.1" y2="241.2"/>
<line x1="579.2" y1="190.1" x2="613.4" y2="95.4"/>
<line x1="579.2" y1="190.1" x2="613.4" y2="95.4"/>
<line x1="579.2" y1="190.1" x2="613.4" y2="95.4"/>
<line x1="579.2" y1="190.1" x2="613.4" y2="95.4"/>
<line x1="579.2" y1="190.1" x2="613.4" y2="95.4"/>
<line x1="579.2" y1="190.1" x2="466.2" y2="317.9"/>
<line x1="497.8" y1="90.8" x2="579.2" y2="190.1"/>
<line x1="497.8" y1="90.8" x2="579.2" y2="190.1"/>
<line x1="497.8" y1="90.8" x2="605.1" y2="241.2"/>
<line x1="497.8" y1="90.8" x2="605.1" y2="241.2"/>
<line x1="497.8" y1="90.8" x2="605.1" y2="241.2"/>
<line x1="497.8" y1="90.8" x2="422.7" y2="165.5"/>
<line x1="497.8" y1="90.8" x2="422.7" y2="165.5"/>
<line x1="497.8" y1="90.8" x2="542.9" y2="139.7"/>
<line x1="497.8" y1="90.8" x2="613.4" y2="95.4"/>
<line x1="497.8" y1="90.8" x2="613.4" y2="95.4"/>
<line x1="497.8" y1="90.8" x2="613.4" y2="95.4"/>
<line x1="838.8" y1="264.1" x2="706.6" y2="457.7"/>
<line x1="838.8" y1="264.1" x2="706.6" y2="457.7"/>
<line x1="838.8" y1="264.1" x2="722.8" y2="143.9"/>
<line x1="838.8" y1="264.1" x2="722.8" y2="143.9"/>
<line x1="838.8" y1="264.1" x2="935.2" y2="338.1"/>
<line x1="838.8" y1="264.1" x2="781.1" y2="140.3"/>
<line x1="838.8" y1="264.1" x2="781.1" y2="140.3"/>
<line x1="838.8" y1="264.1" x2="717.9" y2="323.0"/>
<line x1="862.2" y1="409.3" x2="838.8" y2="264.1"/>
<line x1="862.2" y1="409.3" x2="859.6" y2="557.0"/>
<line x1="862.2" y1="409.3" x2="738.8" y2="233.8"/>
<line x1="862.2" y1="409.3" x2="547.3" y2="301.7"/>
<line x1="862.2" y1="409.3" x2="903.9" y2="580.2"/>
<line x1="862.2" y1="409.3" x2="781.1" y2="140.3"/>
<line x1="862.2" y1="409.3" x2="1030.3" y2="520.4"/>
<line x1="786.4" y1="473.5" x2="838.8" y2="264.1"/>
<line x1="786.4" y1="473.5" x2="450.3" y2="490.3"/>
<line x1="786.4" y1="473.5" x2="621.6" y2="387.6"/>
<line x1="786.4" y1="473.5" x2="791.2" y2="361.2"/>
<line x1="786.4" y1="473.5" x2="791.2" y2="361.2"/>
<line x1="786.4" y1="473.5" x2="1017.8" y2="581.2"/>
<line x1="786.4" y1="473.5" x2="754.9" y2="411.0"/>
<line x1="450.3" y1="490.3" x2="433.5" y2="688.7"/>
<line x1="450.3" y1="490.3" x2="433.5" y2="688.7"/>
<line x1="450.3" y1="490.3" x2="433.5" y2="688.7"/>
<line x1="450.3" y1="490.3" x2="369.4" y2="638.7"/>
<line x1="450.3" y1="490.3" x2="272.0" y2="634.9"/>
<line x1="450.3" y1="490.3" x2="272.0" y2="634.9"/>
<line x1="450.3" y1="490.3" x2="272.0" y2="634.9"/>
<line x1="450.3" y1="490.3" x2="621.6" y2="387.6"/>
<line x1="450.3" y1="490.3" x2="621.6" y2="387.6"/>
<line x1="450.3" y1="490.3" x2="547.3" y2="301.7"/>
<line x1="450.3" y1="490.3" x2="317.6" y2="565.0"/>
<line x1="450.3" y1="490.3" x2="317.6" y2="565.0"/>
<line x1="450.3" y1="490.3" x2="401.9" y2="530.0"/>
<line x1="433.5" y1="688.7" x2="450.3" y2="490.3"/>
<line x1="433.5" y1="688.7" x2="369.4" y2="638.7"/>
<line x1="433.5" y1="688.7" x2="272.0" y2="634.9"/>
<line x1="433.5" y1="688.7" x2="393.7" y2="730.5"/>
<line x1="433.5" y1="688.7" x2="317.6" y2="565.0"/>
<line x1="433.5" y1="688.7" x2="881.8" y2="715.0"/>
<line x1="369.4" y1="638.7" x2="433.5" y2="688.7"/>
<line x1="369.4" y1="638.7" x2="272.0" y2="634.9"/>
<line x1="369.4" y1="638.7" x2="272.0" y2="634.9"/>
<line x1="369.4" y1="638.7" x2="572.8" y2="530.1"/>
<line x1="369.4" y1="638.7" x2="393.7" y2="730.5"/>
<line x1="369.4" y1="638.7" x2="393.7" y2="730.5"/>
<line x1="369.4" y1="638.7" x2="504.5" y2="415.5"/>
<line x1="369.4" y1="638.7" x2="317.6" y2="565.0"/>
<line x1="369.4" y1="638.7" x2="487.7" y2="601.6"/>
<line x1="272.0" y1="634.9" x2="450.3" y2="490.3"/>
<line x1="272.0" y1="634.9" x2="433.5" y2="688.7"/>
<line x1="272.0" y1="634.9" x2="369.4" y2="638.7"/>
<line x1="272.0" y1="634.9" x2="369.4" y2="638.7"/>
<line x1="272.0" y1="634.9" x2="317.6" y2="565.0"/>
<line x1="859.6" y1="557.0" x2="862.2" y2="409.3"/>
<line x1="859.6" y1="557.0" x2="634.1" y2="463.5"/>
<line x1="859.6" y1="557.0" x2="634.1" y2="463.5"/>
<line x1="859.6" y1="557.0" x2="634.1" y2="463.5"/>
<line x1="859.6" y1="557.0" x2="1017.8" y2="581.2"/>
<line x1="859.6" y1="557.0" x2="903.9" y2="580.2"/>
<line x1="859.6" y1="557.0" x2="622.8" y2="660.7"/>
<line x1="859.6" y1="557.0" x2="1030.3" y2="520.4"/>
<line x1="572.8" y1="530.1" x2="786.4" y2="473.5"/>
<line x1="572.8" y1="530.1" x2="786.4" y2="473.5"/>
<line x1="572.8" y1="530.1" x2="450.3" y2="490.3"/>
<line x1="572.8" y1="530.1" x2="450.3" y2="490.3"/>
<line x1="572.8" y1="530.1" x2="369.4" y2="638.7"/>
<line x1="572.8" y1="530.1" x2="706.6" y2="457.7"/>
<line x1="572.8" y1="530.1" x2="706.6" y2="457.7"/>
<line x1="572.8" y1="530.1" x2="634.1" y2="463.5"/>
<line x1="572.8" y1="530.1" x2="634.1" y2="463.5"/>
<line x1="572.8" y1="530.1" x2="487.7" y2="601.6"/>
<line x1="572.8" y1="530.1" x2="487.7" y2="601.6"/>
<line x1="572.8" y1="530.1" x2="622.8" y2="660.7"/>
<line x1="572.8" y1="530.1" x2="622.8" y2="660.7"/>
<line x1="572.8" y1="530.1" x2="628.9" y2="577.1"/>
<line x1="572.8" y1="530.1" x2="628.9" y2="577.1"/>
<line x1="572.8" y1="530.1" x2="707.9" y2="716.1"/>
<line x1="572.8" y1="530.1" x2="717.9" y2="323.0"/>
<line x1="572.8" y1="530.1" x2="466.2" y2="317.9"/>
<line x1="572.8" y1="530.1" x2="466.2" y2="317.9"/>
<line x1="572.8" y1="530.1" x2="754.9" y2="411.0"/>
<line x1="572.8" y1="530.1" x2="754.9" y2="411.0"/>
<line x1="621.6" y1="387.6" x2="838.8" y2="264.1"/>
<line x1="621.6" y1="387.6" x2="706.6" y2="457.7"/>
<line x1="621.6" y1="387.6" x2="472.8" y2="259.9"/>
<line x1="621.6" y1="387.6" x2="754.9" y2="411.0"/>
<line x1="706.6" y1="457.7" x2="838.8" y2="264.1"/>
<line x1="706.6" y1="457.7" x2="862.2" y2="409.3"/>
<line x1="706.6" y1="457.7" x2="450.3" y2="490.3"/>
<line x1="706.6" y1="457.7" x2="572.8" y2="530.1"/>
<line x1="706.6" y1="457.7" x2="621.6" y2="387.6"/>
<line x1="706.6" y1="457.7" x2="487.7" y2="601.6"/>
<line x1="706.6" y1="457.7" x2="717.9" y2="323.0"/>
<line x1="738.8" y1="233.8" x2="838.8" y2="264.1"/>
<line x1="738.8" y1="233.8" x2="862.2" y2="409.3"/>
<line x1="738.8" y1="233.8" x2="472.8" y2="259.9"/>
<line x1="738.8" y1="233.8" x2="472.8" y2="259.9"/>
<line x1="738.8" y1="233.8" x2="781.1" y2="140.3"/>
<line x1="738.8" y1="233.8" x2="781.1" y2="140.3"/>
<line x1="738.8" y1="233.8" x2="537.1" y2="264.5"/>
<line x1="738.8" y1="233.8" x2="754.9" y2="411.0"/>
<line x1="547.3" y1="301.7" x2="579.2" y2="190.1"/>
<line x1="547.3" y1="301.7" x2="579.2" y2="190.1"/>
<line x1="547.3" y1="301.7" x2="579.2" y2="190.1"/>
<line x1="547.3" y1="301.7" x2="579.2" y2="190.1"/>
<line x1="547.3" y1="301.7" x2="497.8" y2="90.8"/>
<line x1="547.3" y1="301.7" x2="497.8" y2="90.8"/>
<line x1="547.3" y1="301.7" x2="497.8" y2="90.8"/>
<line x1="547.3" y1="301.7" x2="862.2" y2="409.3"/>
<line x1="547.3" y1="301.7" x2="786.4" y2="473.5"/>
<line x1="547.3" y1="301.7" x2="450.3" y2="490.3"/>
<line x1="547.3" y1="301.7" x2="450.3" y2="490.3"/>
<line x1="547.3" y1="301.7" x2="450.3" y2="490.3"/>
<line x1="547.3" y1="301.7" x2="572.8" y2="530.1"/>
<line x1="547.3" y1="301.7" x2="621.6" y2="387.6"/>
<line x1="547.3" y1="301.7" x2="738.8" y2="233.8"/>
<line x1="547.3" y1="301.7" x2="791.2" y2="361.2"/>
<line x1="547.3" y1="301.7" x2="634.1" y2="463.5"/>
<line x1="547.3" y1="301.7" x2="605.1" y2="241.2"/>
<line x1="547.3" y1="301.7" x2="605.1" y2="241.2"/>
<line x1="547.3" y1="301.7" x2="605.1" y2="241.2"/>
<line x1="547.3" y1="301.7" x2="422.7" y2="165.5"/>
<line x1="547.3" y1="301.7" x2="643.5" y2="157.3"/>
<line x1="547.3" y1="301.7" x2="643.5" y2="157.3"/>
<line x1="547.3" y1="301.7" x2="643.5" y2="157.3"/>
<line x1="547.3" y1="301.7" x2="329.6" y2="90.7"/>
<line x1="547.3" y1="301.7" x2="329.6" y2="90.7"/>
<line x1="547.3" y1="301.7" x2="487.7" y2="601.6"/>
<line x1="547.3" y1="301.7" x2="628.9" y2="577.1"/>
<line x1="547.3" y1="301.7" x2="628.9" y2="577.1"/>
<line x1="547.3" y1="301.7" x2="509.7" y2="190.1"/>
<line x1="547.3" y1="301.7" x2="509.7" y2="190.1"/>
<line x1="547.3" y1="301.7" x2="320.8" y2="193.0"/>
<line x1="547.3" y1="301.7" x2="320.8" y2="193.0"/>
<line x1="547.3" y1="301.7" x2="566.4" y2="48.0"/>
<line x1="547.3" y1="301.7" x2="566.4" y2="48.0"/>
<line x1="547.3" y1="301.7" x2="542.9" y2="139.7"/>
<line x1="547.3" y1="301.7" x2="542.9" y2="139.7"/>
<line x1="547.3" y1="301.7" x2="717.9" y2="323.0"/>
<line x1="547.3" y1="301.7" x2="308.7" y2="272.6"/>
<line x1="547.3" y1="301.7" x2="537.1" y2="264.5"/>
<line x1="547.3" y1="301.7" x2="613.4" y2="95.4"/>
<line x1="547.3" y1="301.7" x2="613.4" y2="95.4"/>
<line x1="547.3" y1="301.7" x2="613.4" y2="95.4"/>
<line x1="547.3" y1="301.7" x2="401.9" y2="530.0"/>
<line x1="547.3" y1="301.7" x2="401.9" y2="530.0"/>
<line x1="547.3" y1="301.7" x2="401.9" y2="530.0"/>
<line x1="547.3" y1="301.7" x2="466.2" y2="317.9"/>
<line x1="547.3" y1="301.7" x2="466.2" y2="317.9"/>
<line x1="547.3" y1="301.7" x2="754.9" y2="411.0"/>
<line x1="547.3" y1="301.7" x2="401.8" y2="85.3"/>
<line x1="393.7" y1="730.5" x2="450.3" y2="490.3"/>
<line x1="393.7" y1="730.5" x2="450.3" y2="490.3"/>
<line x1="393.7" y1="730.5" x2="433.5" y2="688.7"/>
<line x1="393.7" y1="730.5" x2="369.4" y2="638.7"/>
<line x1="393.7" y1="730.5" x2="369.4" y2="638.7"/>
<line x1="393.7" y1="730.5" x2="572.8" y2="530.1"/>
<line x1="393.7" y1="730.5" x2="572.8" y2="530.1"/>
<line x1="722.8" y1="143.9" x2="579.2" y2="190.1"/>
<line x1="722.8" y1="143.9" x2="497.8" y2="90.8"/>
<line x1="722.8" y1="143.9" x2="838.8" y2="264.1"/>
<line x1="722.8" y1="143.9" x2="634.1" y2="463.5"/>
<line x1="722.8" y1="143.9" x2="472.8" y2="259.9"/>
<line x1="722.8" y1="143.9" x2="781.1" y2="140.3"/>
<line x1="722.8" y1="143.9" x2="537.1" y2="264.5"/>
<line x1="791.2" y1="361.2" x2="579.2" y2="190.1"/>
<line x1="791.2" y1="361.2" x2="579.2" y2="190.1"/>
<line x1="791.2" y1="361.2" x2="786.4" y2="473.5"/>
<line x1="791.2" y1="361.2" x2="786.4" y2="473.5"/>
<line x1="791.2" y1="361.2" x2="786.4" y2="473.5"/>
<line x1="791.2" y1="361.2" x2="786.4" y2="473.5"/>
<line x1="791.2" y1="361.2" x2="572.8" y2="530.1"/>
<line x1="791.2" y1="361.2" x2="628.9" y2="577.1"/>
<line x1="791.2" y1="361.2" x2="1058.9" y2="449.5"/>
<line x1="791.2" y1="361.2" x2="1030.3" y2="520.4"/>
<line x1="791.2" y1="361.2" x2="613.4" y2="95.4"/>
<line x1="791.2" y1="361.2" x2="466.2" y2="317.9"/>
<line x1="634.1" y1="463.5" x2="579.2" y2="190.1"/>
<line x1="634.1" y1="463.5" x2="369.4" y2="638.7"/>
<line x1="634.1" y1="463.5" x2="859.6" y2="557.0"/>
<line x1="634.1" y1="463.5" x2="572.8" y2="530.1"/>
<line x1="634.1" y1="463.5" x2="605.1" y2="241.2"/>
<line x1="634.1" y1="463.5" x2="487.7" y2="601.6"/>
<line x1="634.1" y1="463.5" x2="628.9" y2="577.1"/>
<line x1="634.1" y1="463.5" x2="707.9" y2="716.1"/>
<line x1="605.1" y1="241.2" x2="497.8" y2="90.8"/>
<line x1="605.1" y1="241.2" x2="572.8" y2="530.1"/>
<line x1="605.1" y1="241.2" x2="504.5" y2="415.5"/>
<line x1="605.1" y1="241.2" x2="613.4" y2="95.4"/>
<line x1="605.1" y1="241.2" x2="613.4" y2="95.4"/>
<line x1="1017.8" y1="581.2" x2="862.2" y2="409.3"/>
<line x1="1017.8" y1="581.2" x2="786.4" y2="473.5"/>
<line x1="1017.8" y1="581.2" x2="859.6" y2="557.0"/>
<line x1="1017.8" y1="581.2" x2="903.9" y2="580.2"/>
<line x1="1017.8" y1="581.2" x2="1030.3" y2="520.4"/>
<line x1="422.7" y1="165.5" x2="497.8" y2="90.8"/>
<line x1="422.7" y1="165.5" x2="497.8" y2="90.8"/>
<line x1="422.7" y1="165.5" x2="497.8" y2="90.8"/>
<line x1="422.7" y1="165.5" x2="634.1" y2="463.5"/>
<line x1="422.7" y1="165.5" x2="504.5" y2="415.5"/>
<line x1="422.7" y1="165.5" x2="472.8" y2="259.9"/>
<line x1="422.7" y1="165.5" x2="509.7" y2="190.1"/>
<line x1="422.7" y1="165.5" x2="509.7" y2="190.1"/>
<line x1="422.7" y1="165.5" x2="509.7" y2="190.1"/>
<line x1="422.7" y1="165.5" x2="566.4" y2="48.0"/>
<line x1="422.7" y1="165.5" x2="537.1" y2="264.5"/>
<line x1="643.5" y1="157.3" x2="579.2" y2="190.1"/>
<line x1="643.5" y1="157.3" x2="579.2" y2="190.1"/>
<line x1="643.5" y1="157.3" x2="628.9" y2="577.1"/>
<line x1="643.5" y1="157.3" x2="566.4" y2="48.0"/>
<line x1="643.5" y1="157.3" x2="566.4" y2="48.0"/>
<line x1="643.5" y1="157.3" x2="542.9" y2="139.7"/>
<line x1="643.5" y1="157.3" x2="542.9" y2="139.7"/>
<line x1="643.5" y1="157.3" x2="613.4" y2="95.4"/>
<line x1="643.5" y1="157.3" x2="613.4" y2="95.4"/>
<line x1="643.5" y1="157.3" x2="466.2" y2="317.9"/>
<line x1="329.6" y1="90.7" x2="497.8" y2="90.8"/>
<line x1="329.6" y1="90.7" x2="497.8" y2="90.8"/>
<line x1="329.6" y1="90.7" x2="472.8" y2="259.9"/>
<line x1="329.6" y1="90.7" x2="320.8" y2="193.0"/>
<line x1="329.6" y1="90.7" x2="320.8" y2="193.0"/>
<line x1="329.6" y1="90.7" x2="537.1" y2="264.5"/>
<line x1="329.6" y1="90.7" x2="401.8" y2="85.3"/>
<line x1="903.9" y1="580.2" x2="862.2" y2="409.3"/>
<line x1="903.9" y1="580.2" x2="859.6" y2="557.0"/>
<line x1="903.9" y1="580.2" x2="1017.8" y2="581.2"/>
<line x1="903.9" y1="580.2" x2="722.1" y2="799.5"/>
<line x1="903.9" y1="580.2" x2="707.9" y2="716.1"/>
<line x1="903.9" y1="580.2" x2="1030.3" y2="520.4"/>
<line x1="903.9" y1="580.2" x2="537.1" y2="264.5"/>
<line x1="504.5" y1="415.5" x2="786.4" y2="473.5"/>
<line x1="504.5" y1="415.5" x2="450.3" y2="490.3"/>
<line x1="504.5" y1="415.5" x2="572.8" y2="530.1"/>
<line x1="504.5" y1="415.5" x2="572.8" y2="530.1"/>
<line x1="504.5" y1="415.5" x2="572.8" y2="530.1"/>
<line x1="504.5" y1="415.5" x2="634.1" y2="463.5"/>
<line x1="504.5" y1="415.5" x2="605.1" y2="241.2"/>
<line x1="504.5" y1="415.5" x2="605.1" y2="241.2"/>
<line x1="504.5" y1="415.5" x2="605.1" y2="241.2"/>
<line x1="504.5" y1="415.5" x2="472.8" y2="259.9"/>
<line x1="504.5" y1="415.5" x2="628.9" y2="577.1"/>
<line x1="504.5" y1="415.5" x2="566.4" y2="48.0"/>
<line x1="504.5" y1="415.5" x2="537.1" y2="264.5"/>
<line x1="504.5" y1="415.5" x2="401.9" y2="530.0"/>
<line x1="504.5" y1="415.5" x2="466.2" y2="317.9"/>
<line x1="317.6" y1="565.0" x2="450.3" y2="490.3"/>
<line x1="317.6" y1="565.0" x2="450.3" y2="490.3"/>
<line x1="317.6" y1="565.0" x2="433.5" y2="688.7"/>
<line x1="317.6" y1="565.0" x2="369.4" y2="638.7"/>
<line x1="317.6" y1="565.0" x2="272.0" y2="634.9"/>
<line x1="317.6" y1="565.0" x2="572.8" y2="530.1"/>
<line x1="317.6" y1="565.0" x2="504.5" y2="415.5"/>
<line x1="317.6" y1="565.0" x2="504.5" y2="415.5"/>
<line x1="317.6" y1="565.0" x2="401.9" y2="530.0"/>
<line x1="317.6" y1="565.0" x2="401.9" y2="530.0"/>
<line x1="472.8" y1="259.9" x2="579.2" y2="190.1"/>
<line x1="472.8" y1="259.9" x2="579.2" y2="190.1"/>
<line x1="472.8" y1="259.9" x2="450.3" y2="490.3"/>
<line x1="472.8" y1="259.9" x2="621.6" y2="387.6"/>
<line x1="472.8" y1="259.9" x2="509.7" y2="190.1"/>
<line x1="472.8" y1="259.9" x2="509.7" y2="190.1"/>
<line x1="472.8" y1="259.9" x2="401.9" y2="530.0"/>
<line x1="935.2" y1="338.1" x2="838.8" y2="264.1"/>
<line x1="935.2" y1="338.1" x2="859.6" y2="557.0"/>
<line x1="935.2" y1="338.1" x2="605.1" y2="241.2"/>
<line x1="935.2" y1="338.1" x2="1017.8" y2="581.2"/>
<line x1="935.2" y1="338.1" x2="903.9" y2="580.2"/>
<line x1="935.2" y1="338.1" x2="509.7" y2="190.1"/>
<line x1="935.2" y1="338.1" x2="1030.3" y2="520.4"/>
<line x1="487.7" y1="601.6" x2="450.3" y2="490.3"/>
<line x1="487.7" y1="601.6" x2="572.8" y2="530.1"/>
<line x1="487.7" y1="601.6" x2="572.8" y2="530.1"/>
<line x1="487.7" y1="601.6" x2="393.7" y2="730.5"/>
<line x1="487.7" y1="601.6" x2="401.9" y2="530.0"/>
<line x1="622.8" y1="660.7" x2="859.6" y2="557.0"/>
<line x1="622.8" y1="660.7" x2="572.8" y2="530.1"/>
<line x1="622.8" y1="660.7" x2="572.8" y2="530.1"/>
<line x1="622.8" y1="660.7" x2="572.8" y2="530.1"/>
<line x1="622.8" y1="660.7" x2="393.7" y2="730.5"/>
<line x1="622.8" y1="660.7" x2="504.5" y2="415.5"/>
<line x1="622.8" y1="660.7" x2="504.5" y2="415.5"/>
<line x1="622.8" y1="660.7" x2="707.9" y2="716.1"/>
<line x1="622.8" y1="660.7" x2="707.9" y2="716.1"/>
<line x1="628.9" y1="577.1" x2="862.2" y2="409.3"/>
<line x1="628.9" y1="577.1" x2="450.3" y2="490.3"/>
<line x1="628.9" y1="577.1" x2="450.3" y2="490.3"/>
<line x1="628.9" y1="577.1" x2="572.8" y2="530.1"/>
<line x1="628.9" y1="577.1" x2="722.1" y2="799.5"/>
<line x1="628.9" y1="577.1" x2="722.1" y2="799.5"/>
<line x1="628.9" y1="577.1" x2="722.1" y2="799.5"/>
<line x1="628.9" y1="577.1" x2="683.5" y2="880.0"/>
<line x1="628.9" y1="577.1" x2="707.9" y2="716.1"/>
<line x1="628.9" y1="577.1" x2="707.9" y2="716.1"/>
<line x1="628.9" y1="577.1" x2="601.8" y2="813.6"/>
<line x1="628.9" y1="577.1" x2="601.8" y2="813.6"/>
<line x1="722.1" y1="799.5" x2="628.9" y2="577.1"/>
<line x1="722.1" y1="799.5" x2="683.5" y2="880.0"/>
<line x1="722.1" y1="799.5" x2="683.5" y2="880.0"/>
<line x1="722.1" y1="799.5" x2="683.5" y2="880.0"/>
<line x1="722.1" y1="799.5" x2="707.9" y2="716.1"/>
<line x1="722.1" y1="799.5" x2="707.9" y2="716.1"/>
<line x1="722.1" y1="799.5" x2="601.8" y2="813.6"/>
<line x1="722.1" y1="799.5" x2="601.8" y2="813.6"/>
<line x1="683.5" y1="880.0" x2="628.9" y2="577.1"/>
<line x1="683.5" y1="880.0" x2="722.1" y2="799.5"/>
<line x1="683.5" y1="880.0" x2="707.9" y2="716.1"/>
<line x1="683.5" y1="880.0" x2="601.8" y2="813.6"/>
<line x1="707.9" y1="716.1" x2="572.8" y2="530.1"/>
<line x1="707.9" y1="716.1" x2="903.9" y2="580.2"/>
<line x1="707.9" y1="716.1" x2="622.8" y2="660.7"/>
<line x1="707.9" y1="716.1" x2="622.8" y2="660.7"/>
<line x1="707.9" y1="716.1" x2="628.9" y2="577.1"/>
<line x1="707.9" y1="716.1" x2="722.1" y2="799.5"/>
<line x1="707.9" y1="716.1" x2="722.1" y2="799.5"/>
<line x1="707.9" y1="716.1" x2="601.8" y2="813.6"/>
<line x1="601.8" y1="813.6" x2="628.9" y2="577.1"/>
<line x1="601.8" y1="813.6" x2="722.1" y2="799.5"/>
<line x1="601.8" y1="813.6" x2="683.5" y2="880.0"/>
<line x1="601.8" y1="813.6" x2="683.5" y2="880.0"/>
<line x1="601.8" y1="813.6" x2="707.9" y2="716.1"/>
<line x1="509.7" y1="190.1" x2="579.2" y2="190.1"/>
<line x1="509.7" y1="190.1" x2="579.2" y2="190.1"/>
<line x1="509.7" y1="190.1" x2="497.8" y2="90.8"/>
<line x1="509.7" y1="190.1" x2="450.3" y2="490.3"/>
<line x1="509.7" y1="190.1" x2="422.7" y2="165.5"/>
<line x1="509.7" y1="190.1" x2="542.9" y2="139.7"/>
<line x1="509.7" y1="190.1" x2="613.4" y2="95.4"/>
<line x1="509.7" y1="190.1" x2="466.2" y2="317.9"/>
<line x1="1058.9" y1="449.5" x2="786.4" y2="473.5"/>
<line x1="1058.9" y1="449.5" x2="859.6" y2="557.0"/>
<line x1="1058.9" y1="449.5" x2="791.2" y2="361.2"/>
<line x1="1058.9" y1="449.5" x2="1017.8" y2="581.2"/>
<line x1="1058.9" y1="449.5" x2="903.9" y2="580.2"/>
<line x1="1058.9" y1="449.5" x2="1030.3" y2="520.4"/>
<line x1="320.8" y1="193.0" x2="579.2" y2="190.1"/>
<line x1="320.8" y1="193.0" x2="450.3" y2="490.3"/>
<line x1="320.8" y1="193.0" x2="329.6" y2="90.7"/>
<line x1="320.8" y1="193.0" x2="466.2" y2="317.9"/>
<line x1="320.8" y1="193.0" x2="401.8" y2="85.3"/>
<line x1="781.1" y1="140.3" x2="838.8" y2="264.1"/>
<line x1="781.1" y1="140.3" x2="838.8" y2="264.1"/>
<line x1="781.1" y1="140.3" x2="738.8" y2="233.8"/>
<line x1="781.1" y1="140.3" x2="722.8" y2="143.9"/>
<line x1="781.1" y1="140.3" x2="722.8" y2="143.9"/>
<line x1="781.1" y1="140.3" x2="401.8" y2="85.3"/>
<line x1="566.4" y1="48.0" x2="605.1" y2="241.2"/>
<line x1="566.4" y1="48.0" x2="643.5" y2="157.3"/>
<line x1="566.4" y1="48.0" x2="643.5" y2="157.3"/>
<line x1="566.4" y1="48.0" x2="643.5" y2="157.3"/>
<line x1="566.4" y1="48.0" x2="542.9" y2="139.7"/>
<line x1="566.4" y1="48.0" x2="613.4" y2="95.4"/>
<line x1="566.4" y1="48.0" x2="613.4" y2="95.4"/>
<line x1="566.4" y1="48.0" x2="613.4" y2="95.4"/>
<line x1="1030.3" y1="520.4" x2="862.2" y2="409.3"/>
<line x1="1030.3" y1="520.4" x2="859.6" y2="557.0"/>
<line x1="1030.3" y1="520.4" x2="1017.8" y2="581.2"/>
<line x1="1030.3" y1="520.4" x2="903.9" y2="580.2"/>
<line x1="542.9" y1="139.7" x2="579.2" y2="190.1"/>
<line x1="542.9" y1="139.7" x2="579.2" y2="190.1"/>
<line x1="542.9" y1="139.7" x2="579.2" y2="190.1"/>
<line x1="542.9" y1="139.7" x2="605.1" y2="241.2"/>
<line x1="542.9" y1="139.7" x2="605.1" y2="241.2"/>
<line x1="542.9" y1="139.7" x2="628.9" y2="577.1"/>
<line x1="542.9" y1="139.7" x2="613.4" y2="95.4"/>
<line x1="542.9" y1="139.7" x2="613.4" y2="95.4"/>
<line x1="542.9" y1="139.7" x2="466.2" y2="317.9"/>
<line x1="542.9" y1="139.7" x2="401.8" y2="85.3"/>
<line x1="717.9" y1="323.0" x2="579.2" y2="190.1"/>
<line x1="717.9" y1="323.0" x2="838.8" y2="264.1"/>
<line x1="717.9" y1="323.0" x2="862.2" y2="409.3"/>
<line x1="717.9" y1="323.0" x2="450.3" y2="490.3"/>
<line x1="717.9" y1="323.0" x2="706.6" y2="457.7"/>
<line x1="717.9" y1="323.0" x2="781.1" y2="140.3"/>
<line x1="308.7" y1="272.6" x2="450.3" y2="490.3"/>
<line x1="308.7" y1="272.6" x2="537.1" y2="264.5"/>
<line x1="308.7" y1="272.6" x2="537.1" y2="264.5"/>
<line x1="537.1" y1="264.5" x2="738.8" y2="233.8"/>
<line x1="537.1" y1="264.5" x2="504.5" y2="415.5"/>
<line x1="537.1" y1="264.5" x2="472.8" y2="259.9"/>
<line x1="537.1" y1="264.5" x2="472.8" y2="259.9"/>
<line x1="537.1" y1="264.5" x2="781.1" y2="140.3"/>
<line x1="537.1" y1="264.5" x2="781.1" y2="140.3"/>
<line x1="537.1" y1="264.5" x2="308.7" y2="272.6"/>
<line x1="537.1" y1="264.5" x2="308.7" y2="272.6"/>
<line x1="613.4" y1="95.4" x2="579.2" y2="190.1"/>
<line x1="613.4" y1="95.4" x2="605.1" y2="241.2"/>
<line x1="613.4" y1="95.4" x2="566.4" y2="48.0"/>
<line x1="613.4" y1="95.4" x2="542.9" y2="139.7"/>
<line x1="401.9" y1="530.0" x2="450.3" y2="490.3"/>
<line x1="401.9" y1="530.0" x2="450.3" y2="490.3"/>
<line x1="401.9" y1="530.0" x2="433.5" y2="688.7"/>
<line x1="401.9" y1="530.0" x2="369.4" y2="638.7"/>
<line x1="401.9" y1="530.0" x2="272.0" y2="634.9"/>
<line x1="401.9" y1="530.0" x2="272.0" y2="634.9"/>
<line x1="401.9" y1="530.0" x2="628.9" y2="577.1"/>
<line x1="401.9" y1="530.0" x2="601.8" y2="813.6"/>
<line x1="466.2" y1="317.9" x2="579.2" y2="190.1"/>
<line x1="466.2" y1="317.9" x2="450.3" y2="490.3"/>
<line x1="466.2" y1="317.9" x2="504.5" y2="415.5"/>
<line x1="466.2" y1="317.9" x2="504.5" y2="415.5"/>
<line x1="466.2" y1="317.9" x2="628.9" y2="577.1"/>
<line x1="466.2" y1="317.9" x2="320.8" y2="193.0"/>
<line x1="466.2" y1="317.9" x2="401.8" y2="85.3"/>
<line x1="754.9" y1="411.0" x2="838.8" y2="264.1"/>
<line x1="754.9" y1="411.0" x2="786.4" y2="473.5"/>
<line x1="754.9" y1="411.0" x2="621.6" y2="387.6"/>
<line x1="754.9" y1="411.0" x2="706.6" y2="457.7"/>
<line x1="754.9" y1="411.0" x2="738.8" y2="233.8"/>
<line x1="754.9" y1="411.0" x2="643.5" y2="157.3"/>
<line x1="754.9" y1="411.0" x2="881.8" y2="715.0"/>
<line x1="881.8" y1="715.0" x2="859.6" y2="557.0"/>
<line x1="881.8" y1="715.0" x2="1017.8" y2="581.2"/>
<line x1="881.8" y1="715.0" x2="903.9" y2="580.2"/>
<line x1="881.8" y1="715.0" x2="1030.3" y2="520.4"/>
<line x1="401.8" y1="85.3" x2="579.2" y2="190.1"/>
<line x1="401.8" y1="85.3" x2="329.6" y2="90.7"/>
<line x1="401.8" y1="85.3" x2="329.6" y2="90.7"/>
<line x1="401.8" y1="85.3" x2="320.8" y2="193.0"/>
<line x1="401.8" y1="85.3" x2="320.8" y2="193.0"/>
<line x1="401.8" y1="85.3" x2="308.7" y2="272.6"/>
<line x1="401.8" y1="85.3" x2="466.2" y2="317.9"/>
</g>
<g>
<circle cx="579.2" cy="190.1" r="14.8" fill="#d4a574" stroke="#fff" stroke-width="1.5"><title>acne-myths · in:24</title></circle>
<text x="579.2" y="171.4" text-anchor="middle" font-family="Inter,system-ui,sans-serif" font-size="9.5" fill="#4d6358" font-weight="600">acne-myths</text>
<circle cx="497.8" cy="90.8" r="11.6" fill="#7a9285" stroke="#fff" stroke-width="1.5"><title>acne-scar-treatment · in:12</title></circle>
<text x="497.8" y="75.2" text-anchor="middle" font-family="Inter,system-ui,sans-serif" font-size="9.5" fill="#4d6358" font-weight="600">acne-scar-treatment</text>
<circle cx="838.8" cy="264.1" r="11.3" fill="#7a9285" stroke="#fff" stroke-width="1.5"><title>actinic-keratosis-scc · in:11</title></circle>
<text x="838.8" y="248.8" text-anchor="middle" font-family="Inter,system-ui,sans-serif" font-size="9.5" fill="#4d6358" font-weight="600">actinic-keratosis-scc</text>
<circle cx="862.2" cy="409.3" r="10.6" fill="#4d6358" stroke="#fff" stroke-width="1.5"><title>ai-dermatology-roles · in:9</title></circle>
<text x="862.2" y="394.7" text-anchor="middle" font-family="Inter,system-ui,sans-serif" font-size="9.5" fill="#4d6358" font-weight="600">ai-dermatology-roles</text>
<circle cx="786.4" cy="473.5" r="11.3" fill="#7a9285" stroke="#fff" stroke-width="1.5"><title>alopecia-areata · in:11</title></circle>
<text x="786.4" y="458.2" text-anchor="middle" font-family="Inter,system-ui,sans-serif" font-size="9.5" fill="#4d6358" font-weight="600">alopecia-areata</text>
<circle cx="450.3" cy="490.3" r="15.0" fill="#7a9285" stroke="#fff" stroke-width="1.5"><title>atopic-dermatitis-overview · in:25</title></circle>
<text x="450.3" y="471.3" text-anchor="middle" font-family="Inter,system-ui,sans-serif" font-size="9.5" fill="#4d6358" font-weight="600">atopic-dermatitis-overvi</text>
<circle cx="433.5" cy="688.7" r="10.2" fill="#7a9285" stroke="#fff" stroke-width="1.5"><title>atopic-dermatitis-special-populations · in:8</title></circle>
<text x="433.5" y="674.5" text-anchor="middle" font-family="Inter,system-ui,sans-serif" font-size="9.5" fill="#4d6358" font-weight="600">atopic-dermatitis-specia</text>
<circle cx="369.4" cy="638.7" r="11.0" fill="#7a9285" stroke="#fff" stroke-width="1.5"><title>atopic-dermatitis-systemic · in:10</title></circle>
<text x="369.4" y="623.8" text-anchor="middle" font-family="Inter,system-ui,sans-serif" font-size="9.5" fill="#4d6358" font-weight="600">atopic-dermatitis-system</text>
<circle cx="272.0" cy="634.9" r="10.6" fill="#7a9285" stroke="#fff" stroke-width="1.5"><title>atopic-dermatitis-topical · in:9</title></circle>
<text x="272.0" y="620.3" text-anchor="middle" font-family="Inter,system-ui,sans-serif" font-size="9.5" fill="#4d6358" font-weight="600">atopic-dermatitis-topica</text>
<circle cx="859.6" cy="557.0" r="10.6" fill="#4d6358" stroke="#fff" stroke-width="1.5"><title>bimekizumab-hidradenitis-suppurativa · in:9</title></circle>
<text x="859.6" y="542.4" text-anchor="middle" font-family="Inter,system-ui,sans-serif" font-size="9.5" fill="#4d6358" font-weight="600">bimekizumab-hidradenitis</text>
<circle cx="572.8" cy="530.1" r="13.6" fill="#7a9285" stroke="#fff" stroke-width="1.5"><title>biologics-overview · in:19</title></circle>
<text x="572.8" y="512.5" text-anchor="middle" font-family="Inter,system-ui,sans-serif" font-size="9.5" fill="#4d6358" font-weight="600">biologics-overview</text>
<circle cx="621.6" cy="387.6" r="9.8" fill="#7a9285" stroke="#fff" stroke-width="1.5"><title>contact-dermatitis · in:7</title></circle>
<circle cx="706.6" cy="457.7" r="9.8" fill="#7a9285" stroke="#fff" stroke-width="1.5"><title>cutaneous-t-cell-lymphoma · in:7</title></circle>
<circle cx="738.8" cy="233.8" r="8.9" fill="#7a9285" stroke="#fff" stroke-width="1.5"><title>dermatologic-oral-examination · in:5</title></circle>
<circle cx="547.3" cy="301.7" r="7.8" fill="#d4a574" stroke="#fff" stroke-width="1.5"><title>dermatology-faq · in:3</title></circle>
<circle cx="393.7" cy="730.5" r="8.9" fill="#4d6358" stroke="#fff" stroke-width="1.5"><title>dupilumab-long-term-maintenance · in:5</title></circle>
<circle cx="722.8" cy="143.9" r="8.4" fill="#7a9285" stroke="#fff" stroke-width="1.5"><title>epidermoid-cyst · in:4</title></circle>
<circle cx="791.2" cy="361.2" r="8.4" fill="#d4a574" stroke="#fff" stroke-width="1.5"><title>hairloss-myths · in:4</title></circle>
<circle cx="634.1" cy="463.5" r="10.6" fill="#7a9285" stroke="#fff" stroke-width="1.5"><title>hidradenitis-suppurativa · in:9</title></circle>
<text x="634.1" y="448.9" text-anchor="middle" font-family="Inter,system-ui,sans-serif" font-size="9.5" fill="#4d6358" font-weight="600">hidradenitis-suppurativa</text>
<circle cx="605.1" cy="241.2" r="13.3" fill="#7a9285" stroke="#fff" stroke-width="1.5"><title>isotretinoin-patient · in:18</title></circle>
<text x="605.1" y="223.9" text-anchor="middle" font-family="Inter,system-ui,sans-serif" font-size="9.5" fill="#4d6358" font-weight="600">isotretinoin-patient</text>
<circle cx="1017.8" cy="581.2" r="9.8" fill="#4d6358" stroke="#fff" stroke-width="1.5"><title>jaki-switching-alopecia-areata · in:7</title></circle>
<circle cx="422.7" cy="165.5" r="8.4" fill="#7a9285" stroke="#fff" stroke-width="1.5"><title>laser-dermatology · in:4</title></circle>
<circle cx="643.5" cy="157.3" r="9.8" fill="#d4a574" stroke="#fff" stroke-width="1.5"><title>melasma-myths · in:7</title></circle>
<circle cx="329.6" cy="90.7" r="8.9" fill="#7a9285" stroke="#fff" stroke-width="1.5"><title>mpox-care · in:5</title></circle>
<circle cx="903.9" cy="580.2" r="10.2" fill="#4d6358" stroke="#fff" stroke-width="1.5"><title>nail-psoriasis-topical-intralesional · in:8</title></circle>
<text x="903.9" y="566.0" text-anchor="middle" font-family="Inter,system-ui,sans-serif" font-size="9.5" fill="#4d6358" font-weight="600">nail-psoriasis-topical-i</text>
<circle cx="504.5" cy="415.5" r="11.0" fill="#7a9285" stroke="#fff" stroke-width="1.5"><title>nhi-derm-drugs · in:10</title></circle>
<text x="504.5" y="400.5" text-anchor="middle" font-family="Inter,system-ui,sans-serif" font-size="9.5" fill="#4d6358" font-weight="600">nhi-derm-drugs</text>
<circle cx="317.6" cy="565.0" r="8.9" fill="#7a9285" stroke="#fff" stroke-width="1.5"><title>pediatric-eczema · in:5</title></circle>
<circle cx="472.8" cy="259.9" r="10.6" fill="#7a9285" stroke="#fff" stroke-width="1.5"><title>perioral-dermatitis-guide · in:9</title></circle>
<text x="472.8" y="245.3" text-anchor="middle" font-family="Inter,system-ui,sans-serif" font-size="9.5" fill="#4d6358" font-weight="600">perioral-dermatitis-guid</text>
<circle cx="935.2" cy="338.1" r="6.2" fill="#4d6358" stroke="#fff" stroke-width="1.5"><title>photodynamic-therapy-overview · in:1</title></circle>
<circle cx="487.7" cy="601.6" r="9.4" fill="#7a9285" stroke="#fff" stroke-width="1.5"><title>prurigo-nodularis · in:6</title></circle>
<circle cx="622.8" cy="660.7" r="8.9" fill="#4d6358" stroke="#fff" stroke-width="1.5"><title>psoriasis-biologic-monitoring · in:5</title></circle>
<circle cx="628.9" cy="577.1" r="12.5" fill="#d4a574" stroke="#fff" stroke-width="1.5"><title>psoriasis-myths · in:15</title></circle>
<text x="628.9" y="560.6" text-anchor="middle" font-family="Inter,system-ui,sans-serif" font-size="9.5" fill="#4d6358" font-weight="600">psoriasis-myths</text>
<circle cx="722.1" cy="799.5" r="10.2" fill="#7a9285" stroke="#fff" stroke-width="1.5"><title>psoriasis-overview · in:8</title></circle>
<text x="722.1" y="785.3" text-anchor="middle" font-family="Inter,system-ui,sans-serif" font-size="9.5" fill="#4d6358" font-weight="600">psoriasis-overview</text>
<circle cx="683.5" cy="880.0" r="9.4" fill="#7a9285" stroke="#fff" stroke-width="1.5"><title>psoriasis-special-populations · in:6</title></circle>
<circle cx="707.9" cy="716.1" r="11.3" fill="#7a9285" stroke="#fff" stroke-width="1.5"><title>psoriasis-systemic · in:11</title></circle>
<text x="707.9" y="700.8" text-anchor="middle" font-family="Inter,system-ui,sans-serif" font-size="9.5" fill="#4d6358" font-weight="600">psoriasis-systemic</text>
<circle cx="601.8" cy="813.6" r="9.8" fill="#7a9285" stroke="#fff" stroke-width="1.5"><title>psoriasis-topical · in:7</title></circle>
<circle cx="509.7" cy="190.1" r="10.2" fill="#d4a574" stroke="#fff" stroke-width="1.5"><title>rosacea-myths · in:8</title></circle>
<text x="509.7" y="175.9" text-anchor="middle" font-family="Inter,system-ui,sans-serif" font-size="9.5" fill="#4d6358" font-weight="600">rosacea-myths</text>
<circle cx="1058.9" cy="449.5" r="6.2" fill="#4d6358" stroke="#fff" stroke-width="1.5"><title>semaglutide-hair-loss · in:1</title></circle>
<circle cx="320.8" cy="193.0" r="9.8" fill="#d4a574" stroke="#fff" stroke-width="1.5"><title>shingles-myths · in:7</title></circle>
<circle cx="781.1" cy="140.3" r="10.6" fill="#7a9285" stroke="#fff" stroke-width="1.5"><title>skin-biopsy-excision · in:9</title></circle>
<text x="781.1" y="125.7" text-anchor="middle" font-family="Inter,system-ui,sans-serif" font-size="9.5" fill="#4d6358" font-weight="600">skin-biopsy-excision</text>
<circle cx="566.4" cy="48.0" r="9.8" fill="#a4b5a8" stroke="#fff" stroke-width="1.5"><title>skin-whitening-agents · in:7</title></circle>
<circle cx="1030.3" cy="520.4" r="10.2" fill="#4d6358" stroke="#fff" stroke-width="1.5"><title>spironolactone-dermatology-safety · in:8</title></circle>
<text x="1030.3" y="506.2" text-anchor="middle" font-family="Inter,system-ui,sans-serif" font-size="9.5" fill="#4d6358" font-weight="600">spironolactone-dermatolo</text>
<circle cx="542.9" cy="139.7" r="10.2" fill="#d4a574" stroke="#fff" stroke-width="1.5"><title>sunscreen-myths · in:8</title></circle>
<text x="542.9" y="125.5" text-anchor="middle" font-family="Inter,system-ui,sans-serif" font-size="9.5" fill="#4d6358" font-weight="600">sunscreen-myths</text>
<circle cx="717.9" cy="323.0" r="8.4" fill="#7a9285" stroke="#fff" stroke-width="1.5"><title>targeted-therapy-skin · in:4</title></circle>
<circle cx="308.7" cy="272.6" r="8.4" fill="#d4a574" stroke="#fff" stroke-width="1.5"><title>tinea-myths · in:4</title></circle>
<circle cx="537.1" cy="264.5" r="10.6" fill="#7a9285" stroke="#fff" stroke-width="1.5"><title>toenail-mechanical-disorders · in:9</title></circle>
<text x="537.1" y="249.9" text-anchor="middle" font-family="Inter,system-ui,sans-serif" font-size="9.5" fill="#4d6358" font-weight="600">toenail-mechanical-disor</text>
<circle cx="613.4" cy="95.4" r="14.3" fill="#a4b5a8" stroke="#fff" stroke-width="1.5"><title>topical-acids-patient · in:22</title></circle>
<text x="613.4" y="77.1" text-anchor="middle" font-family="Inter,system-ui,sans-serif" font-size="9.5" fill="#4d6358" font-weight="600">topical-acids-patient</text>
<circle cx="401.9" cy="530.0" r="10.6" fill="#7a9285" stroke="#fff" stroke-width="1.5"><title>topical-steroids-guide · in:9</title></circle>
<text x="401.9" y="515.4" text-anchor="middle" font-family="Inter,system-ui,sans-serif" font-size="9.5" fill="#4d6358" font-weight="600">topical-steroids-guide</text>
<circle cx="466.2" cy="317.9" r="11.6" fill="#d4a574" stroke="#fff" stroke-width="1.5"><title>urticaria-myths · in:12</title></circle>
<text x="466.2" y="302.3" text-anchor="middle" font-family="Inter,system-ui,sans-serif" font-size="9.5" fill="#4d6358" font-weight="600">urticaria-myths</text>
<circle cx="754.9" cy="411.0" r="9.4" fill="#7a9285" stroke="#fff" stroke-width="1.5"><title>vitiligo · in:6</title></circle>
<circle cx="881.8" cy="715.0" r="7.1" fill="#4d6358" stroke="#fff" stroke-width="1.5"><title>vitiligo-maintenance-clinical · in:2</title></circle>
<circle cx="401.8" cy="85.3" r="9.4" fill="#d4a574" stroke="#fff" stroke-width="1.5"><title>warts-myths · in:6</title></circle>
</g>
<g transform="translate(1000,60)" font-family="Inter,system-ui,sans-serif" font-size="11" fill="#2a2620">
<text x="0" y="0" font-weight="700">Category</text>
<circle cx="6" cy="18" r="6" fill="#7a9285" stroke="#fff" stroke-width="1.2"/><text x="18" y="22">Treatment &amp; Therapy</text>
<circle cx="6" cy="36" r="6" fill="#d4a574" stroke="#fff" stroke-width="1.2"/><text x="18" y="40">Myths &amp; Facts</text>
<circle cx="6" cy="54" r="6" fill="#4d6358" stroke="#fff" stroke-width="1.2"/><text x="18" y="58">Research Summary</text>
<circle cx="6" cy="72" r="6" fill="#a4b5a8" stroke="#fff" stroke-width="1.2"/><text x="18" y="76">Products &amp; Drugs</text>
<circle cx="6" cy="90" r="6" fill="#8b8378" stroke="#fff" stroke-width="1.2"/><text x="18" y="94">Clinical Notes</text>
<text x="0" y="120" font-size="10.5" fill="#5e574e" font-style="italic">larger circle = more incoming internal links</text>
</g>
</svg>