<svg xmlns="http://www.w3.org/2000/svg" viewBox="0 0 1200 900" role="img" aria-label="DermNotes internal-link graph">
<rect width="100%" height="100%" fill="#faf7f2"/>
<text x="600" y="36" text-anchor="middle" font-family="'Noto Serif TC',Georgia,serif" font-size="20" font-weight="700" fill="#2a2620">ChenDermatologist · internal-link cluster map (46 articles)</text>
<g stroke="#8b8378" stroke-opacity="0.30" stroke-width="0.8" fill="none">
<line x1="747.8" y1="576.4" x2="852.3" y2="645.2"/>
<line x1="747.8" y1="576.4" x2="709.1" y2="481.6"/>
<line x1="747.8" y1="576.4" x2="852.3" y2="645.2"/>
<line x1="747.8" y1="576.4" x2="834.0" y2="505.6"/>
<line x1="747.8" y1="576.4" x2="852.3" y2="645.2"/>
<line x1="747.8" y1="576.4" x2="852.3" y2="645.2"/>
<line x1="747.8" y1="576.4" x2="834.0" y2="505.6"/>
<line x1="747.8" y1="576.4" x2="852.3" y2="645.2"/>
<line x1="747.8" y1="576.4" x2="834.0" y2="505.6"/>
<line x1="747.8" y1="576.4" x2="788.7" y2="671.4"/>
<line x1="747.8" y1="576.4" x2="764.4" y2="473.1"/>
<line x1="788.7" y1="671.4" x2="928.6" y2="567.7"/>
<line x1="788.7" y1="671.4" x2="852.3" y2="645.2"/>
<line x1="788.7" y1="671.4" x2="865.2" y2="589.5"/>
<line x1="788.7" y1="671.4" x2="834.0" y2="505.6"/>
<line x1="788.7" y1="671.4" x2="747.8" y2="576.4"/>
<line x1="788.7" y1="671.4" x2="852.3" y2="645.2"/>
<line x1="788.7" y1="671.4" x2="834.0" y2="505.6"/>
<line x1="788.7" y1="671.4" x2="834.0" y2="505.6"/>
<line x1="788.7" y1="671.4" x2="865.2" y2="589.5"/>
<line x1="788.7" y1="671.4" x2="747.8" y2="576.4"/>
<line x1="788.7" y1="671.4" x2="852.3" y2="645.2"/>
<line x1="291.1" y1="467.3" x2="369.0" y2="620.1"/>
<line x1="291.1" y1="467.3" x2="392.2" y2="247.2"/>
<line x1="291.1" y1="467.3" x2="499.3" y2="568.7"/>
<line x1="291.1" y1="467.3" x2="397.4" y2="456.1"/>
<line x1="435.3" y1="301.6" x2="369.0" y2="620.1"/>
<line x1="435.3" y1="301.6" x2="291.1" y2="467.3"/>
<line x1="435.3" y1="301.6" x2="390.5" y2="546.4"/>
<line x1="435.3" y1="301.6" x2="709.1" y2="481.6"/>
<line x1="435.3" y1="301.6" x2="401.4" y2="106.3"/>
<line x1="435.3" y1="301.6" x2="703.2" y2="109.1"/>
<line x1="435.3" y1="301.6" x2="586.5" y2="20.0"/>
<line x1="536.1" y1="369.8" x2="653.2" y2="440.6"/>
<line x1="536.1" y1="369.8" x2="602.3" y2="268.7"/>
<line x1="536.1" y1="369.8" x2="653.2" y2="440.6"/>
<line x1="536.1" y1="369.8" x2="307.0" y2="349.7"/>
<line x1="536.1" y1="369.8" x2="291.1" y2="467.3"/>
<line x1="536.1" y1="369.8" x2="462.5" y2="359.6"/>
<line x1="602.3" y1="268.7" x2="307.0" y2="349.7"/>
<line x1="602.3" y1="268.7" x2="521.8" y2="20.0"/>
<line x1="602.3" y1="268.7" x2="547.5" y2="163.1"/>
<line x1="602.3" y1="268.7" x2="462.5" y2="40.7"/>
<line x1="602.3" y1="268.7" x2="641.1" y2="217.3"/>
<line x1="602.3" y1="268.7" x2="521.8" y2="20.0"/>
<line x1="602.3" y1="268.7" x2="635.4" y2="64.5"/>
<line x1="602.3" y1="268.7" x2="462.5" y2="40.7"/>
<line x1="462.5" y1="40.7" x2="521.8" y2="20.0"/>
<line x1="462.5" y1="40.7" x2="635.4" y2="64.5"/>
<line x1="462.5" y1="40.7" x2="547.5" y2="163.1"/>
<line x1="462.5" y1="40.7" x2="602.3" y2="268.7"/>
<line x1="635.4" y1="64.5" x2="586.5" y2="20.0"/>
<line x1="635.4" y1="64.5" x2="719.5" y2="359.0"/>
<line x1="635.4" y1="64.5" x2="706.0" y2="46.5"/>
<line x1="635.4" y1="64.5" x2="695.6" y2="230.0"/>
<line x1="635.4" y1="64.5" x2="586.5" y2="20.0"/>
<line x1="635.4" y1="64.5" x2="521.8" y2="20.0"/>
<line x1="521.8" y1="20.0" x2="635.4" y2="64.5"/>
<line x1="521.8" y1="20.0" x2="635.4" y2="64.5"/>
<line x1="521.8" y1="20.0" x2="462.5" y2="40.7"/>
<line x1="521.8" y1="20.0" x2="547.5" y2="163.1"/>
<line x1="521.8" y1="20.0" x2="602.3" y2="268.7"/>
<line x1="695.6" y1="230.0" x2="392.2" y2="247.2"/>
<line x1="695.6" y1="230.0" x2="602.3" y2="268.7"/>
<line x1="695.6" y1="230.0" x2="891.2" y2="261.2"/>
<line x1="695.6" y1="230.0" x2="536.1" y2="369.8"/>
<line x1="695.6" y1="230.0" x2="764.4" y2="473.1"/>
<line x1="695.6" y1="230.0" x2="795.6" y2="303.4"/>
<line x1="695.6" y1="230.0" x2="462.5" y2="359.6"/>
<line x1="695.6" y1="230.0" x2="602.3" y2="268.7"/>
<line x1="695.6" y1="230.0" x2="891.2" y2="261.2"/>
<line x1="695.6" y1="230.0" x2="764.4" y2="473.1"/>
<line x1="695.6" y1="230.0" x2="536.1" y2="369.8"/>
<line x1="695.6" y1="230.0" x2="462.5" y2="359.6"/>
<line x1="695.6" y1="230.0" x2="795.6" y2="303.4"/>
<line x1="695.6" y1="230.0" x2="911.9" y2="71.7"/>
<line x1="695.6" y1="230.0" x2="635.4" y2="64.5"/>
<line x1="695.6" y1="230.0" x2="706.0" y2="46.5"/>
<line x1="695.6" y1="230.0" x2="703.2" y2="109.1"/>
<line x1="307.0" y1="349.7" x2="542.5" y2="492.2"/>
<line x1="307.0" y1="349.7" x2="291.1" y2="467.3"/>
<line x1="307.0" y1="349.7" x2="462.5" y2="359.6"/>
<line x1="307.0" y1="349.7" x2="392.2" y2="247.2"/>
<line x1="392.2" y1="247.2" x2="706.0" y2="46.5"/>
<line x1="392.2" y1="247.2" x2="602.3" y2="268.7"/>
<line x1="392.2" y1="247.2" x2="695.6" y2="230.0"/>
<line x1="392.2" y1="247.2" x2="291.1" y2="467.3"/>
<line x1="392.2" y1="247.2" x2="397.4" y2="456.1"/>
<line x1="392.2" y1="247.2" x2="435.3" y2="301.6"/>
<line x1="392.2" y1="247.2" x2="307.0" y2="349.7"/>
<line x1="390.5" y1="546.4" x2="369.0" y2="620.1"/>
<line x1="390.5" y1="546.4" x2="291.1" y2="467.3"/>
<line x1="390.5" y1="546.4" x2="542.5" y2="492.2"/>
<line x1="390.5" y1="546.4" x2="462.5" y2="359.6"/>
<line x1="390.5" y1="546.4" x2="542.5" y2="492.2"/>
<line x1="390.5" y1="546.4" x2="553.2" y2="627.3"/>
<line x1="390.5" y1="546.4" x2="369.0" y2="620.1"/>
<line x1="709.1" y1="481.6" x2="852.3" y2="645.2"/>
<line x1="709.1" y1="481.6" x2="641.1" y2="217.3"/>
<line x1="709.1" y1="481.6" x2="747.8" y2="576.4"/>
<line x1="709.1" y1="481.6" x2="834.0" y2="505.6"/>
<line x1="709.1" y1="481.6" x2="641.1" y2="217.3"/>
<line x1="709.1" y1="481.6" x2="852.3" y2="645.2"/>
<line x1="709.1" y1="481.6" x2="942.7" y2="639.4"/>
<line x1="709.1" y1="481.6" x2="928.6" y2="567.7"/>
<line x1="709.1" y1="481.6" x2="602.3" y2="268.7"/>
<line x1="709.1" y1="481.6" x2="747.8" y2="576.4"/>
<line x1="709.1" y1="481.6" x2="788.7" y2="671.4"/>
<line x1="709.1" y1="481.6" x2="834.0" y2="505.6"/>
<line x1="709.1" y1="481.6" x2="788.7" y2="671.4"/>
<line x1="709.1" y1="481.6" x2="829.0" y2="565.7"/>
<line x1="709.1" y1="481.6" x2="829.0" y2="565.7"/>
<line x1="709.1" y1="481.6" x2="602.3" y2="268.7"/>
<line x1="709.1" y1="481.6" x2="648.3" y2="672.9"/>
<line x1="709.1" y1="481.6" x2="747.8" y2="576.4"/>
<line x1="709.1" y1="481.6" x2="788.7" y2="671.4"/>
<line x1="709.1" y1="481.6" x2="852.3" y2="645.2"/>
<line x1="709.1" y1="481.6" x2="834.0" y2="505.6"/>
<line x1="709.1" y1="481.6" x2="641.1" y2="217.3"/>
<line x1="709.1" y1="481.6" x2="695.6" y2="230.0"/>
<line x1="709.1" y1="481.6" x2="602.3" y2="268.7"/>
<line x1="709.1" y1="481.6" x2="829.0" y2="565.7"/>
<line x1="709.1" y1="481.6" x2="928.6" y2="567.7"/>
<line x1="709.1" y1="481.6" x2="942.7" y2="639.4"/>
<line x1="709.1" y1="481.6" x2="878.5" y2="481.6"/>
<line x1="709.1" y1="481.6" x2="878.5" y2="481.6"/>
<line x1="709.1" y1="481.6" x2="653.2" y2="440.6"/>
<line x1="709.1" y1="481.6" x2="536.1" y2="369.8"/>
<line x1="709.1" y1="481.6" x2="891.2" y2="261.2"/>
<line x1="709.1" y1="481.6" x2="462.5" y2="359.6"/>
<line x1="709.1" y1="481.6" x2="795.6" y2="303.4"/>
<line x1="709.1" y1="481.6" x2="764.4" y2="473.1"/>
<line x1="709.1" y1="481.6" x2="666.9" y2="565.8"/>
<line x1="709.1" y1="481.6" x2="697.5" y2="738.3"/>
<line x1="709.1" y1="481.6" x2="648.3" y2="672.9"/>
<line x1="709.1" y1="481.6" x2="627.9" y2="804.1"/>
<line x1="709.1" y1="481.6" x2="397.4" y2="456.1"/>
<line x1="709.1" y1="481.6" x2="390.5" y2="546.4"/>
<line x1="709.1" y1="481.6" x2="435.3" y2="301.6"/>
<line x1="709.1" y1="481.6" x2="747.8" y2="576.4"/>
<line x1="709.1" y1="481.6" x2="764.4" y2="473.1"/>
<line x1="709.1" y1="481.6" x2="891.2" y2="261.2"/>
<line x1="586.5" y1="20.0" x2="602.3" y2="268.7"/>
<line x1="586.5" y1="20.0" x2="635.4" y2="64.5"/>
<line x1="586.5" y1="20.0" x2="695.6" y2="230.0"/>
<line x1="586.5" y1="20.0" x2="703.2" y2="109.1"/>
<line x1="586.5" y1="20.0" x2="635.4" y2="64.5"/>
<line x1="586.5" y1="20.0" x2="706.0" y2="46.5"/>
<line x1="586.5" y1="20.0" x2="695.6" y2="230.0"/>
<line x1="499.3" y1="568.7" x2="795.6" y2="303.4"/>
<line x1="499.3" y1="568.7" x2="747.8" y2="576.4"/>
<line x1="499.3" y1="568.7" x2="788.7" y2="671.4"/>
<line x1="499.3" y1="568.7" x2="369.0" y2="620.1"/>
<line x1="499.3" y1="568.7" x2="291.1" y2="467.3"/>
<line x1="499.3" y1="568.7" x2="542.5" y2="492.2"/>
<line x1="499.3" y1="568.7" x2="553.2" y2="627.3"/>
<line x1="653.2" y1="440.6" x2="747.8" y2="576.4"/>
<line x1="653.2" y1="440.6" x2="852.3" y2="645.2"/>
<line x1="653.2" y1="440.6" x2="536.1" y2="369.8"/>
<line x1="653.2" y1="440.6" x2="536.1" y2="369.8"/>
<line x1="653.2" y1="440.6" x2="695.6" y2="230.0"/>
<line x1="653.2" y1="440.6" x2="536.1" y2="369.8"/>
<line x1="653.2" y1="440.6" x2="747.8" y2="576.4"/>
<line x1="653.2" y1="440.6" x2="764.4" y2="473.1"/>
<line x1="653.2" y1="440.6" x2="891.2" y2="261.2"/>
<line x1="795.6" y1="303.4" x2="747.8" y2="576.4"/>
<line x1="795.6" y1="303.4" x2="834.0" y2="505.6"/>
<line x1="795.6" y1="303.4" x2="891.2" y2="261.2"/>
<line x1="795.6" y1="303.4" x2="911.9" y2="71.7"/>
<line x1="795.6" y1="303.4" x2="635.4" y2="64.5"/>
<line x1="795.6" y1="303.4" x2="706.0" y2="46.5"/>
<line x1="795.6" y1="303.4" x2="695.6" y2="230.0"/>
<line x1="834.0" y1="505.6" x2="852.3" y2="645.2"/>
<line x1="834.0" y1="505.6" x2="852.3" y2="645.2"/>
<line x1="834.0" y1="505.6" x2="788.7" y2="671.4"/>
<line x1="834.0" y1="505.6" x2="719.5" y2="359.0"/>
<line x1="834.0" y1="505.6" x2="695.6" y2="230.0"/>
<line x1="865.2" y1="589.5" x2="788.7" y2="671.4"/>
<line x1="865.2" y1="589.5" x2="795.6" y2="303.4"/>
<line x1="865.2" y1="589.5" x2="878.5" y2="481.6"/>
<line x1="865.2" y1="589.5" x2="788.7" y2="671.4"/>
<line x1="865.2" y1="589.5" x2="878.5" y2="481.6"/>
<line x1="865.2" y1="589.5" x2="942.7" y2="639.4"/>
<line x1="865.2" y1="589.5" x2="719.5" y2="359.0"/>
<line x1="865.2" y1="589.5" x2="788.7" y2="671.4"/>
<line x1="865.2" y1="589.5" x2="878.5" y2="481.6"/>
<line x1="865.2" y1="589.5" x2="542.5" y2="492.2"/>
<line x1="865.2" y1="589.5" x2="553.2" y2="627.3"/>
<line x1="829.0" y1="565.7" x2="928.6" y2="567.7"/>
<line x1="829.0" y1="565.7" x2="852.3" y2="645.2"/>
<line x1="829.0" y1="565.7" x2="747.8" y2="576.4"/>
<line x1="829.0" y1="565.7" x2="942.7" y2="639.4"/>
<line x1="829.0" y1="565.7" x2="928.6" y2="567.7"/>
<line x1="829.0" y1="565.7" x2="852.3" y2="645.2"/>
<line x1="829.0" y1="565.7" x2="942.7" y2="639.4"/>
<line x1="829.0" y1="565.7" x2="747.8" y2="576.4"/>
<line x1="829.0" y1="565.7" x2="764.4" y2="473.1"/>
<line x1="829.0" y1="565.7" x2="891.2" y2="261.2"/>
<line x1="627.9" y1="804.1" x2="788.7" y2="671.4"/>
<line x1="627.9" y1="804.1" x2="788.7" y2="671.4"/>
<line x1="627.9" y1="804.1" x2="648.3" y2="672.9"/>
<line x1="627.9" y1="804.1" x2="697.5" y2="738.3"/>
<line x1="627.9" y1="804.1" x2="648.3" y2="672.9"/>
<line x1="627.9" y1="804.1" x2="542.5" y2="492.2"/>
<line x1="627.9" y1="804.1" x2="553.2" y2="627.3"/>
<line x1="719.5" y1="359.0" x2="834.0" y2="505.6"/>
<line x1="719.5" y1="359.0" x2="602.3" y2="268.7"/>
<line x1="719.5" y1="359.0" x2="695.6" y2="230.0"/>
<line x1="719.5" y1="359.0" x2="891.2" y2="261.2"/>
<line x1="719.5" y1="359.0" x2="536.1" y2="369.8"/>
<line x1="719.5" y1="359.0" x2="764.4" y2="473.1"/>
<line x1="719.5" y1="359.0" x2="795.6" y2="303.4"/>
<line x1="719.5" y1="359.0" x2="695.6" y2="230.0"/>
<line x1="719.5" y1="359.0" x2="641.1" y2="217.3"/>
<line x1="719.5" y1="359.0" x2="834.0" y2="505.6"/>
<line x1="719.5" y1="359.0" x2="942.7" y2="639.4"/>
<line x1="719.5" y1="359.0" x2="834.0" y2="505.6"/>
<line x1="719.5" y1="359.0" x2="695.6" y2="230.0"/>
<line x1="719.5" y1="359.0" x2="542.5" y2="492.2"/>
<line x1="719.5" y1="359.0" x2="553.2" y2="627.3"/>
<line x1="547.5" y1="163.1" x2="641.1" y2="217.3"/>
<line x1="547.5" y1="163.1" x2="719.5" y2="359.0"/>
<line x1="547.5" y1="163.1" x2="602.3" y2="268.7"/>
<line x1="547.5" y1="163.1" x2="641.1" y2="217.3"/>
<line x1="547.5" y1="163.1" x2="695.6" y2="230.0"/>
<line x1="547.5" y1="163.1" x2="719.5" y2="359.0"/>
<line x1="547.5" y1="163.1" x2="521.8" y2="20.0"/>
<line x1="547.5" y1="163.1" x2="635.4" y2="64.5"/>
<line x1="547.5" y1="163.1" x2="462.5" y2="40.7"/>
<line x1="547.5" y1="163.1" x2="602.3" y2="268.7"/>
<line x1="542.5" y1="492.2" x2="641.1" y2="217.3"/>
<line x1="542.5" y1="492.2" x2="878.5" y2="481.6"/>
<line x1="542.5" y1="492.2" x2="602.3" y2="268.7"/>
<line x1="542.5" y1="492.2" x2="747.8" y2="576.4"/>
<line x1="542.5" y1="492.2" x2="307.0" y2="349.7"/>
<line x1="542.5" y1="492.2" x2="547.5" y2="163.1"/>
<line x1="542.5" y1="492.2" x2="553.2" y2="627.3"/>
<line x1="542.5" y1="492.2" x2="390.5" y2="546.4"/>
<line x1="706.0" y1="46.5" x2="602.3" y2="268.7"/>
<line x1="706.0" y1="46.5" x2="641.1" y2="217.3"/>
<line x1="706.0" y1="46.5" x2="695.6" y2="230.0"/>
<line x1="706.0" y1="46.5" x2="635.4" y2="64.5"/>
<line x1="706.0" y1="46.5" x2="695.6" y2="230.0"/>
<line x1="706.0" y1="46.5" x2="586.5" y2="20.0"/>
<line x1="706.0" y1="46.5" x2="911.9" y2="71.7"/>
<line x1="703.2" y1="109.1" x2="719.5" y2="359.0"/>
<line x1="703.2" y1="109.1" x2="695.6" y2="230.0"/>
<line x1="703.2" y1="109.1" x2="911.9" y2="71.7"/>
<line x1="703.2" y1="109.1" x2="695.6" y2="230.0"/>
<line x1="703.2" y1="109.1" x2="719.5" y2="359.0"/>
<line x1="703.2" y1="109.1" x2="586.5" y2="20.0"/>
<line x1="703.2" y1="109.1" x2="911.9" y2="71.7"/>
<line x1="703.2" y1="109.1" x2="695.6" y2="230.0"/>
<line x1="703.2" y1="109.1" x2="401.4" y2="106.3"/>
<line x1="891.2" y1="261.2" x2="602.3" y2="268.7"/>
<line x1="891.2" y1="261.2" x2="1071.7" y2="96.6"/>
<line x1="891.2" y1="261.2" x2="602.3" y2="268.7"/>
<line x1="891.2" y1="261.2" x2="695.6" y2="230.0"/>
<line x1="891.2" y1="261.2" x2="1071.7" y2="96.6"/>
<line x1="891.2" y1="261.2" x2="1094.2" y2="20.0"/>
<line x1="891.2" y1="261.2" x2="911.9" y2="71.7"/>
<line x1="891.2" y1="261.2" x2="1157.1" y2="88.4"/>
<line x1="1071.7" y1="96.6" x2="1157.1" y2="88.4"/>
<line x1="1071.7" y1="96.6" x2="1094.2" y2="20.0"/>
<line x1="1071.7" y1="96.6" x2="911.9" y2="71.7"/>
<line x1="1071.7" y1="96.6" x2="1157.1" y2="88.4"/>
<line x1="1071.7" y1="96.6" x2="1094.2" y2="20.0"/>
<line x1="1071.7" y1="96.6" x2="911.9" y2="71.7"/>
<line x1="1071.7" y1="96.6" x2="1157.1" y2="88.4"/>
<line x1="1071.7" y1="96.6" x2="891.2" y2="261.2"/>
<line x1="1157.1" y1="88.4" x2="1071.7" y2="96.6"/>
<line x1="1157.1" y1="88.4" x2="1094.2" y2="20.0"/>
<line x1="1157.1" y1="88.4" x2="911.9" y2="71.7"/>
<line x1="1157.1" y1="88.4" x2="891.2" y2="261.2"/>
<line x1="911.9" y1="71.7" x2="703.2" y2="109.1"/>
<line x1="911.9" y1="71.7" x2="695.6" y2="230.0"/>
<line x1="911.9" y1="71.7" x2="703.2" y2="109.1"/>
<line x1="911.9" y1="71.7" x2="1071.7" y2="96.6"/>
<line x1="911.9" y1="71.7" x2="1094.2" y2="20.0"/>
<line x1="1094.2" y1="20.0" x2="1157.1" y2="88.4"/>
<line x1="1094.2" y1="20.0" x2="1071.7" y2="96.6"/>
<line x1="1094.2" y1="20.0" x2="911.9" y2="71.7"/>
<line x1="1094.2" y1="20.0" x2="1157.1" y2="88.4"/>
<line x1="1094.2" y1="20.0" x2="891.2" y2="261.2"/>
<line x1="878.5" y1="481.6" x2="928.6" y2="567.7"/>
<line x1="878.5" y1="481.6" x2="747.8" y2="576.4"/>
<line x1="878.5" y1="481.6" x2="852.3" y2="645.2"/>
<line x1="878.5" y1="481.6" x2="602.3" y2="268.7"/>
<line x1="878.5" y1="481.6" x2="788.7" y2="671.4"/>
<line x1="878.5" y1="481.6" x2="865.2" y2="589.5"/>
<line x1="878.5" y1="481.6" x2="747.8" y2="576.4"/>
<line x1="878.5" y1="481.6" x2="764.4" y2="473.1"/>
<line x1="648.3" y1="672.9" x2="602.3" y2="268.7"/>
<line x1="648.3" y1="672.9" x2="697.5" y2="738.3"/>
<line x1="648.3" y1="672.9" x2="627.9" y2="804.1"/>
<line x1="648.3" y1="672.9" x2="747.8" y2="576.4"/>
<line x1="648.3" y1="672.9" x2="764.4" y2="473.1"/>
<line x1="369.0" y1="620.1" x2="499.3" y2="568.7"/>
<line x1="369.0" y1="620.1" x2="697.5" y2="738.3"/>
<line x1="369.0" y1="620.1" x2="291.1" y2="467.3"/>
<line x1="369.0" y1="620.1" x2="291.1" y2="467.3"/>
<line x1="369.0" y1="620.1" x2="499.3" y2="568.7"/>
<line x1="369.0" y1="620.1" x2="397.4" y2="456.1"/>
<line x1="369.0" y1="620.1" x2="542.5" y2="492.2"/>
<line x1="942.7" y1="639.4" x2="852.3" y2="645.2"/>
<line x1="942.7" y1="639.4" x2="829.0" y2="565.7"/>
<line x1="942.7" y1="639.4" x2="829.0" y2="565.7"/>
<line x1="942.7" y1="639.4" x2="852.3" y2="645.2"/>
<line x1="942.7" y1="639.4" x2="928.6" y2="567.7"/>
<line x1="942.7" y1="639.4" x2="852.3" y2="645.2"/>
<line x1="942.7" y1="639.4" x2="834.0" y2="505.6"/>
<line x1="942.7" y1="639.4" x2="829.0" y2="565.7"/>
<line x1="928.6" y1="567.7" x2="852.3" y2="645.2"/>
<line x1="928.6" y1="567.7" x2="747.8" y2="576.4"/>
<line x1="928.6" y1="567.7" x2="834.0" y2="505.6"/>
<line x1="928.6" y1="567.7" x2="852.3" y2="645.2"/>
<line x1="928.6" y1="567.7" x2="747.8" y2="576.4"/>
<line x1="928.6" y1="567.7" x2="834.0" y2="505.6"/>
<line x1="928.6" y1="567.7" x2="747.8" y2="576.4"/>
<line x1="928.6" y1="567.7" x2="764.4" y2="473.1"/>
<line x1="928.6" y1="567.7" x2="891.2" y2="261.2"/>
<line x1="928.6" y1="567.7" x2="697.5" y2="738.3"/>
<line x1="397.4" y1="456.1" x2="747.8" y2="576.4"/>
<line x1="397.4" y1="456.1" x2="602.3" y2="268.7"/>
<line x1="397.4" y1="456.1" x2="291.1" y2="467.3"/>
<line x1="397.4" y1="456.1" x2="392.2" y2="247.2"/>
<line x1="397.4" y1="456.1" x2="435.3" y2="301.6"/>
<line x1="397.4" y1="456.1" x2="369.0" y2="620.1"/>
<line x1="666.9" y1="565.8" x2="553.2" y2="627.3"/>
<line x1="666.9" y1="565.8" x2="602.3" y2="268.7"/>
<line x1="666.9" y1="565.8" x2="553.2" y2="627.3"/>
<line x1="666.9" y1="565.8" x2="747.8" y2="576.4"/>
<line x1="666.9" y1="565.8" x2="764.4" y2="473.1"/>
<line x1="666.9" y1="565.8" x2="891.2" y2="261.2"/>
<line x1="553.2" y1="627.3" x2="666.9" y2="565.8"/>
<line x1="553.2" y1="627.3" x2="719.5" y2="359.0"/>
<line x1="553.2" y1="627.3" x2="542.5" y2="492.2"/>
<line x1="553.2" y1="627.3" x2="369.0" y2="620.1"/>
<line x1="553.2" y1="627.3" x2="666.9" y2="565.8"/>
<line x1="553.2" y1="627.3" x2="542.5" y2="492.2"/>
<line x1="553.2" y1="627.3" x2="390.5" y2="546.4"/>
<line x1="553.2" y1="627.3" x2="369.0" y2="620.1"/>
<line x1="852.3" y1="645.2" x2="834.0" y2="505.6"/>
<line x1="852.3" y1="645.2" x2="834.0" y2="505.6"/>
<line x1="852.3" y1="645.2" x2="942.7" y2="639.4"/>
<line x1="852.3" y1="645.2" x2="747.8" y2="576.4"/>
<line x1="852.3" y1="645.2" x2="788.7" y2="671.4"/>
<line x1="641.1" y1="217.3" x2="602.3" y2="268.7"/>
<line x1="641.1" y1="217.3" x2="891.2" y2="261.2"/>
<line x1="641.1" y1="217.3" x2="602.3" y2="268.7"/>
<line x1="641.1" y1="217.3" x2="521.8" y2="20.0"/>
<line x1="641.1" y1="217.3" x2="635.4" y2="64.5"/>
<line x1="641.1" y1="217.3" x2="462.5" y2="40.7"/>
<line x1="764.4" y1="473.1" x2="719.5" y2="359.0"/>
<line x1="764.4" y1="473.1" x2="719.5" y2="359.0"/>
<line x1="764.4" y1="473.1" x2="602.3" y2="268.7"/>
<line x1="764.4" y1="473.1" x2="747.8" y2="576.4"/>
<line x1="764.4" y1="473.1" x2="891.2" y2="261.2"/>
<line x1="764.4" y1="473.1" x2="697.5" y2="738.3"/>
<line x1="764.4" y1="473.1" x2="648.3" y2="672.9"/>
<line x1="401.4" y1="106.3" x2="703.2" y2="109.1"/>
<line x1="401.4" y1="106.3" x2="435.3" y2="301.6"/>
<line x1="401.4" y1="106.3" x2="586.5" y2="20.0"/>
<line x1="401.4" y1="106.3" x2="462.5" y2="359.6"/>
<line x1="462.5" y1="359.6" x2="401.4" y2="106.3"/>
<line x1="462.5" y1="359.6" x2="536.1" y2="369.8"/>
<line x1="462.5" y1="359.6" x2="829.0" y2="565.7"/>
<line x1="462.5" y1="359.6" x2="390.5" y2="546.4"/>
<line x1="462.5" y1="359.6" x2="307.0" y2="349.7"/>
<line x1="462.5" y1="359.6" x2="291.1" y2="467.3"/>
<line x1="462.5" y1="359.6" x2="392.2" y2="247.2"/>
<line x1="697.5" y1="738.3" x2="666.9" y2="565.8"/>
<line x1="697.5" y1="738.3" x2="648.3" y2="672.9"/>
<line x1="697.5" y1="738.3" x2="627.9" y2="804.1"/>
<line x1="697.5" y1="738.3" x2="747.8" y2="576.4"/>
<line x1="697.5" y1="738.3" x2="764.4" y2="473.1"/>
</g>
<g>
<circle cx="747.8" cy="576.4" r="14.8" fill="#d4a574" stroke="#fff" stroke-width="1.5"><title>acne-myths · in:24</title></circle>
<text x="747.8" y="557.6" text-anchor="middle" font-family="Inter,system-ui,sans-serif" font-size="9.5" fill="#4d6358" font-weight="600">acne-myths</text>
<circle cx="928.6" cy="567.7" r="9.8" fill="#d4a574" stroke="#fff" stroke-width="1.5"><title>sunscreen-myths · in:7</title></circle>
<circle cx="829.0" cy="565.7" r="9.8" fill="#d4a574" stroke="#fff" stroke-width="1.5"><title>melasma-myths · in:7</title></circle>
<circle cx="878.5" cy="481.6" r="9.4" fill="#d4a574" stroke="#fff" stroke-width="1.5"><title>rosacea-myths · in:6</title></circle>
<circle cx="542.5" cy="492.2" r="11.0" fill="#7a9285" stroke="#fff" stroke-width="1.5"><title>perioral-dermatitis-guide · in:10</title></circle>
<text x="542.5" y="477.2" text-anchor="middle" font-family="Inter,system-ui,sans-serif" font-size="9.5" fill="#4d6358" font-weight="600">perioral-dermatitis-guid</text>
<circle cx="553.2" cy="627.3" r="10.2" fill="#7a9285" stroke="#fff" stroke-width="1.5"><title>toenail-mechanical-disorders · in:8</title></circle>
<text x="553.2" y="613.0" text-anchor="middle" font-family="Inter,system-ui,sans-serif" font-size="9.5" fill="#4d6358" font-weight="600">toenail-mechanical-disor</text>
<circle cx="390.5" cy="546.4" r="8.9" fill="#7a9285" stroke="#fff" stroke-width="1.5"><title>dermatologic-oral-examination · in:5</title></circle>
<circle cx="586.5" cy="20.0" r="9.4" fill="#4d6358" stroke="#fff" stroke-width="1.5"><title>dupilumab-long-term-maintenance · in:6</title></circle>
<circle cx="703.2" cy="109.1" r="9.4" fill="#4d6358" stroke="#fff" stroke-width="1.5"><title>psoriasis-biologic-monitoring · in:6</title></circle>
<circle cx="435.3" cy="301.6" r="8.4" fill="#4d6358" stroke="#fff" stroke-width="1.5"><title>ai-dermatology-roles · in:4</title></circle>
<circle cx="401.4" cy="106.3" r="7.8" fill="#4d6358" stroke="#fff" stroke-width="1.5"><title>vitiligo-maintenance-clinical · in:3</title></circle>
<circle cx="653.2" cy="440.6" r="7.8" fill="#d4a574" stroke="#fff" stroke-width="1.5"><title>hairloss-myths · in:3</title></circle>
<circle cx="666.9" cy="565.8" r="8.4" fill="#d4a574" stroke="#fff" stroke-width="1.5"><title>tinea-myths · in:4</title></circle>
<circle cx="764.4" cy="473.1" r="11.9" fill="#d4a574" stroke="#fff" stroke-width="1.5"><title>urticaria-myths · in:13</title></circle>
<text x="764.4" y="457.2" text-anchor="middle" font-family="Inter,system-ui,sans-serif" font-size="9.5" fill="#4d6358" font-weight="600">urticaria-myths</text>
<circle cx="891.2" cy="261.2" r="12.5" fill="#d4a574" stroke="#fff" stroke-width="1.5"><title>psoriasis-myths · in:15</title></circle>
<text x="891.2" y="244.7" text-anchor="middle" font-family="Inter,system-ui,sans-serif" font-size="9.5" fill="#4d6358" font-weight="600">psoriasis-myths</text>
<circle cx="697.5" cy="738.3" r="9.4" fill="#d4a574" stroke="#fff" stroke-width="1.5"><title>warts-myths · in:6</title></circle>
<circle cx="307.0" cy="349.7" r="8.9" fill="#7a9285" stroke="#fff" stroke-width="1.5"><title>contact-dermatitis · in:5</title></circle>
<circle cx="291.1" cy="467.3" r="11.0" fill="#7a9285" stroke="#fff" stroke-width="1.5"><title>actinic-keratosis-scc · in:10</title></circle>
<text x="291.1" y="452.3" text-anchor="middle" font-family="Inter,system-ui,sans-serif" font-size="9.5" fill="#4d6358" font-weight="600">actinic-keratosis-scc</text>
<circle cx="369.0" cy="620.1" r="10.2" fill="#7a9285" stroke="#fff" stroke-width="1.5"><title>skin-biopsy-excision · in:8</title></circle>
<text x="369.0" y="605.9" text-anchor="middle" font-family="Inter,system-ui,sans-serif" font-size="9.5" fill="#4d6358" font-weight="600">skin-biopsy-excision</text>
<circle cx="1071.7" cy="96.6" r="8.9" fill="#7a9285" stroke="#fff" stroke-width="1.5"><title>psoriasis-overview · in:5</title></circle>
<circle cx="1094.2" cy="20.0" r="8.9" fill="#7a9285" stroke="#fff" stroke-width="1.5"><title>psoriasis-topical · in:5</title></circle>
<circle cx="911.9" cy="71.7" r="11.0" fill="#7a9285" stroke="#fff" stroke-width="1.5"><title>psoriasis-systemic · in:10</title></circle>
<text x="911.9" y="56.7" text-anchor="middle" font-family="Inter,system-ui,sans-serif" font-size="9.5" fill="#4d6358" font-weight="600">psoriasis-systemic</text>
<circle cx="1157.1" cy="88.4" r="9.4" fill="#7a9285" stroke="#fff" stroke-width="1.5"><title>psoriasis-special-populations · in:6</title></circle>
<circle cx="648.3" cy="672.9" r="9.4" fill="#d4a574" stroke="#fff" stroke-width="1.5"><title>shingles-myths · in:6</title></circle>
<circle cx="852.3" cy="645.2" r="14.3" fill="#a4b5a8" stroke="#fff" stroke-width="1.5"><title>topical-acids-patient · in:22</title></circle>
<text x="852.3" y="626.8" text-anchor="middle" font-family="Inter,system-ui,sans-serif" font-size="9.5" fill="#4d6358" font-weight="600">topical-acids-patient</text>
<circle cx="834.0" cy="505.6" r="13.3" fill="#7a9285" stroke="#fff" stroke-width="1.5"><title>isotretinoin-patient · in:18</title></circle>
<text x="834.0" y="488.3" text-anchor="middle" font-family="Inter,system-ui,sans-serif" font-size="9.5" fill="#4d6358" font-weight="600">isotretinoin-patient</text>
<circle cx="788.7" cy="671.4" r="11.9" fill="#7a9285" stroke="#fff" stroke-width="1.5"><title>acne-scar-treatment · in:13</title></circle>
<text x="788.7" y="655.5" text-anchor="middle" font-family="Inter,system-ui,sans-serif" font-size="9.5" fill="#4d6358" font-weight="600">acne-scar-treatment</text>
<circle cx="536.1" cy="369.8" r="10.2" fill="#7a9285" stroke="#fff" stroke-width="1.5"><title>alopecia-areata · in:8</title></circle>
<text x="536.1" y="355.6" text-anchor="middle" font-family="Inter,system-ui,sans-serif" font-size="9.5" fill="#4d6358" font-weight="600">alopecia-areata</text>
<circle cx="462.5" cy="359.6" r="9.8" fill="#7a9285" stroke="#fff" stroke-width="1.5"><title>vitiligo · in:7</title></circle>
<circle cx="627.9" cy="804.1" r="7.8" fill="#7a9285" stroke="#fff" stroke-width="1.5"><title>mpox-care · in:3</title></circle>
<circle cx="795.6" cy="303.4" r="9.4" fill="#7a9285" stroke="#fff" stroke-width="1.5"><title>hidradenitis-suppurativa · in:6</title></circle>
<circle cx="397.4" cy="456.1" r="8.4" fill="#7a9285" stroke="#fff" stroke-width="1.5"><title>targeted-therapy-skin · in:4</title></circle>
<circle cx="641.1" cy="217.3" r="10.6" fill="#7a9285" stroke="#fff" stroke-width="1.5"><title>topical-steroids-guide · in:9</title></circle>
<text x="641.1" y="202.7" text-anchor="middle" font-family="Inter,system-ui,sans-serif" font-size="9.5" fill="#4d6358" font-weight="600">topical-steroids-guide</text>
<circle cx="695.6" cy="230.0" r="13.6" fill="#7a9285" stroke="#fff" stroke-width="1.5"><title>biologics-overview · in:19</title></circle>
<text x="695.6" y="212.4" text-anchor="middle" font-family="Inter,system-ui,sans-serif" font-size="9.5" fill="#4d6358" font-weight="600">biologics-overview</text>
<circle cx="942.7" cy="639.4" r="9.8" fill="#a4b5a8" stroke="#fff" stroke-width="1.5"><title>skin-whitening-agents · in:7</title></circle>
<circle cx="709.1" cy="481.6" r="7.1" fill="#d4a574" stroke="#fff" stroke-width="1.5"><title>dermatology-faq · in:2</title></circle>
<circle cx="499.3" cy="568.7" r="7.8" fill="#7a9285" stroke="#fff" stroke-width="1.5"><title>epidermoid-cyst · in:3</title></circle>
<circle cx="719.5" cy="359.0" r="11.0" fill="#7a9285" stroke="#fff" stroke-width="1.5"><title>nhi-derm-drugs · in:10</title></circle>
<text x="719.5" y="344.0" text-anchor="middle" font-family="Inter,system-ui,sans-serif" font-size="9.5" fill="#4d6358" font-weight="600">nhi-derm-drugs</text>
<circle cx="865.2" cy="589.5" r="7.8" fill="#7a9285" stroke="#fff" stroke-width="1.5"><title>laser-dermatology · in:3</title></circle>
<circle cx="547.5" cy="163.1" r="8.4" fill="#7a9285" stroke="#fff" stroke-width="1.5"><title>pediatric-eczema · in:4</title></circle>
<circle cx="706.0" cy="46.5" r="8.9" fill="#7a9285" stroke="#fff" stroke-width="1.5"><title>prurigo-nodularis · in:5</title></circle>
<circle cx="392.2" cy="247.2" r="8.9" fill="#7a9285" stroke="#fff" stroke-width="1.5"><title>cutaneous-t-cell-lymphoma · in:5</title></circle>
<circle cx="602.3" cy="268.7" r="14.8" fill="#7a9285" stroke="#fff" stroke-width="1.5"><title>atopic-dermatitis-overview · in:24</title></circle>
<text x="602.3" y="249.9" text-anchor="middle" font-family="Inter,system-ui,sans-serif" font-size="9.5" fill="#4d6358" font-weight="600">atopic-dermatitis-overvi</text>
<circle cx="521.8" cy="20.0" r="9.4" fill="#7a9285" stroke="#fff" stroke-width="1.5"><title>atopic-dermatitis-topical · in:6</title></circle>
<circle cx="635.4" cy="64.5" r="11.3" fill="#7a9285" stroke="#fff" stroke-width="1.5"><title>atopic-dermatitis-systemic · in:11</title></circle>
<text x="635.4" y="49.2" text-anchor="middle" font-family="Inter,system-ui,sans-serif" font-size="9.5" fill="#4d6358" font-weight="600">atopic-dermatitis-system</text>
<circle cx="462.5" cy="40.7" r="8.9" fill="#7a9285" stroke="#fff" stroke-width="1.5"><title>atopic-dermatitis-special-populations · in:5</title></circle>
</g>
<g transform="translate(1000,60)" font-family="Inter,system-ui,sans-serif" font-size="11" fill="#2a2620">
<text x="0" y="0" font-weight="700">Category</text>
<circle cx="6" cy="18" r="6" fill="#7a9285" stroke="#fff" stroke-width="1.2"/><text x="18" y="22">Treatment &amp; Therapy</text>
<circle cx="6" cy="36" r="6" fill="#d4a574" stroke="#fff" stroke-width="1.2"/><text x="18" y="40">Myths &amp; Facts</text>
<circle cx="6" cy="54" r="6" fill="#4d6358" stroke="#fff" stroke-width="1.2"/><text x="18" y="58">Research Summary</text>
<circle cx="6" cy="72" r="6" fill="#a4b5a8" stroke="#fff" stroke-width="1.2"/><text x="18" y="76">Products &amp; Drugs</text>
<circle cx="6" cy="90" r="6" fill="#8b8378" stroke="#fff" stroke-width="1.2"/><text x="18" y="94">Clinical Notes</text>
<text x="0" y="120" font-size="10.5" fill="#5e574e" font-style="italic">larger circle = more incoming internal links</text>
</g>
</svg>